<mxfile host="app.diagrams.net" agent="Mozilla/5.0 (Windows NT 10.0; Win64; x64) AppleWebKit/537.36 (KHTML, like Gecko) Chrome/131.0.0.0 Safari/537.36" version="24.9.3">
  <diagram name="Сторінка-1" id="xHU6L1yQS2lmaNoTFxId">
    <mxGraphModel grid="1" page="1" gridSize="10" guides="1" tooltips="1" connect="1" arrows="1" fold="1" pageScale="1" pageWidth="827" pageHeight="1169" math="0" shadow="0">
      <root>
        <mxCell id="0" />
        <mxCell id="1" parent="0" />
        <mxCell id="N_ZYfz5Pbiu0XaLNVqqr-2" style="edgeStyle=orthogonalEdgeStyle;rounded=0;orthogonalLoop=1;jettySize=auto;html=1;" edge="1" parent="1" source="N_ZYfz5Pbiu0XaLNVqqr-1" target="N_ZYfz5Pbiu0XaLNVqqr-3">
          <mxGeometry relative="1" as="geometry">
            <mxPoint x="390" y="-560" as="targetPoint" />
          </mxGeometry>
        </mxCell>
        <mxCell id="N_ZYfz5Pbiu0XaLNVqqr-1" value="Start" style="ellipse;whiteSpace=wrap;html=1;fillColor=#d5e8d4;strokeColor=#82b366;" vertex="1" parent="1">
          <mxGeometry x="330" y="-730" width="120" height="80" as="geometry" />
        </mxCell>
        <mxCell id="N_ZYfz5Pbiu0XaLNVqqr-4" style="edgeStyle=orthogonalEdgeStyle;rounded=0;orthogonalLoop=1;jettySize=auto;html=1;" edge="1" parent="1" source="N_ZYfz5Pbiu0XaLNVqqr-3" target="N_ZYfz5Pbiu0XaLNVqqr-5">
          <mxGeometry relative="1" as="geometry">
            <mxPoint x="390" y="-490" as="targetPoint" />
          </mxGeometry>
        </mxCell>
        <mxCell id="N_ZYfz5Pbiu0XaLNVqqr-3" value="string a, b;" style="rounded=0;whiteSpace=wrap;html=1;" vertex="1" parent="1">
          <mxGeometry x="330" y="-590" width="120" height="60" as="geometry" />
        </mxCell>
        <mxCell id="N_ZYfz5Pbiu0XaLNVqqr-6" style="edgeStyle=orthogonalEdgeStyle;rounded=0;orthogonalLoop=1;jettySize=auto;html=1;" edge="1" parent="1" source="N_ZYfz5Pbiu0XaLNVqqr-5" target="N_ZYfz5Pbiu0XaLNVqqr-7">
          <mxGeometry relative="1" as="geometry">
            <mxPoint x="390" y="-390" as="targetPoint" />
          </mxGeometry>
        </mxCell>
        <mxCell id="N_ZYfz5Pbiu0XaLNVqqr-5" value="cin &gt;&gt; a &gt;&gt; b;" style="shape=parallelogram;perimeter=parallelogramPerimeter;whiteSpace=wrap;html=1;fixedSize=1;" vertex="1" parent="1">
          <mxGeometry x="330" y="-500" width="120" height="60" as="geometry" />
        </mxCell>
        <mxCell id="N_ZYfz5Pbiu0XaLNVqqr-8" style="edgeStyle=orthogonalEdgeStyle;rounded=0;orthogonalLoop=1;jettySize=auto;html=1;" edge="1" parent="1" source="N_ZYfz5Pbiu0XaLNVqqr-7" target="N_ZYfz5Pbiu0XaLNVqqr-9">
          <mxGeometry relative="1" as="geometry">
            <mxPoint x="390" y="-310" as="targetPoint" />
          </mxGeometry>
        </mxCell>
        <mxCell id="N_ZYfz5Pbiu0XaLNVqqr-7" value="string result = &quot;&quot;;" style="rounded=0;whiteSpace=wrap;html=1;" vertex="1" parent="1">
          <mxGeometry x="330" y="-410" width="120" height="60" as="geometry" />
        </mxCell>
        <mxCell id="N_ZYfz5Pbiu0XaLNVqqr-10" style="edgeStyle=orthogonalEdgeStyle;rounded=0;orthogonalLoop=1;jettySize=auto;html=1;" edge="1" parent="1" source="N_ZYfz5Pbiu0XaLNVqqr-9" target="N_ZYfz5Pbiu0XaLNVqqr-11">
          <mxGeometry relative="1" as="geometry">
            <mxPoint x="390" y="-210" as="targetPoint" />
          </mxGeometry>
        </mxCell>
        <mxCell id="N_ZYfz5Pbiu0XaLNVqqr-9" value="int carry = 0;" style="shape=parallelogram;perimeter=parallelogramPerimeter;whiteSpace=wrap;html=1;fixedSize=1;" vertex="1" parent="1">
          <mxGeometry x="330" y="-330" width="120" height="60" as="geometry" />
        </mxCell>
        <mxCell id="N_ZYfz5Pbiu0XaLNVqqr-12" style="edgeStyle=orthogonalEdgeStyle;rounded=0;orthogonalLoop=1;jettySize=auto;html=1;" edge="1" parent="1" source="N_ZYfz5Pbiu0XaLNVqqr-11" target="N_ZYfz5Pbiu0XaLNVqqr-13">
          <mxGeometry relative="1" as="geometry">
            <mxPoint x="390" y="-50" as="targetPoint" />
          </mxGeometry>
        </mxCell>
        <mxCell id="N_ZYfz5Pbiu0XaLNVqqr-11" value="while (a.length() &lt; b.length())" style="rhombus;whiteSpace=wrap;html=1;" vertex="1" parent="1">
          <mxGeometry x="300" y="-230" width="180" height="120" as="geometry" />
        </mxCell>
        <mxCell id="N_ZYfz5Pbiu0XaLNVqqr-15" style="edgeStyle=orthogonalEdgeStyle;rounded=0;orthogonalLoop=1;jettySize=auto;html=1;entryX=0.95;entryY=0.525;entryDx=0;entryDy=0;entryPerimeter=0;" edge="1" parent="1">
          <mxGeometry relative="1" as="geometry">
            <mxPoint x="471" y="-170" as="targetPoint" />
            <mxPoint x="450" y="-53" as="sourcePoint" />
            <Array as="points">
              <mxPoint x="611" y="-53" />
              <mxPoint x="611" y="-170" />
            </Array>
          </mxGeometry>
        </mxCell>
        <mxCell id="N_ZYfz5Pbiu0XaLNVqqr-16" style="edgeStyle=orthogonalEdgeStyle;rounded=0;orthogonalLoop=1;jettySize=auto;html=1;" edge="1" parent="1" source="N_ZYfz5Pbiu0XaLNVqqr-13" target="N_ZYfz5Pbiu0XaLNVqqr-17">
          <mxGeometry relative="1" as="geometry">
            <mxPoint x="390" y="50" as="targetPoint" />
          </mxGeometry>
        </mxCell>
        <mxCell id="N_ZYfz5Pbiu0XaLNVqqr-13" value="a = &quot;0&quot; + a" style="rounded=0;whiteSpace=wrap;html=1;" vertex="1" parent="1">
          <mxGeometry x="330" y="-80" width="120" height="60" as="geometry" />
        </mxCell>
        <mxCell id="N_ZYfz5Pbiu0XaLNVqqr-18" style="edgeStyle=orthogonalEdgeStyle;rounded=0;orthogonalLoop=1;jettySize=auto;html=1;" edge="1" parent="1" source="N_ZYfz5Pbiu0XaLNVqqr-17" target="N_ZYfz5Pbiu0XaLNVqqr-19">
          <mxGeometry relative="1" as="geometry">
            <mxPoint x="390" y="190" as="targetPoint" />
          </mxGeometry>
        </mxCell>
        <mxCell id="N_ZYfz5Pbiu0XaLNVqqr-17" value="while (b.length() &lt; a.length())" style="rhombus;whiteSpace=wrap;html=1;" vertex="1" parent="1">
          <mxGeometry x="305" y="30" width="170" height="110" as="geometry" />
        </mxCell>
        <mxCell id="N_ZYfz5Pbiu0XaLNVqqr-20" style="edgeStyle=orthogonalEdgeStyle;rounded=0;orthogonalLoop=1;jettySize=auto;html=1;entryX=1;entryY=0.5;entryDx=0;entryDy=0;" edge="1" parent="1" source="N_ZYfz5Pbiu0XaLNVqqr-19" target="N_ZYfz5Pbiu0XaLNVqqr-17">
          <mxGeometry relative="1" as="geometry">
            <mxPoint x="620" y="60" as="targetPoint" />
            <Array as="points">
              <mxPoint x="621" y="190" />
              <mxPoint x="621" y="85" />
            </Array>
          </mxGeometry>
        </mxCell>
        <mxCell id="N_ZYfz5Pbiu0XaLNVqqr-21" style="edgeStyle=orthogonalEdgeStyle;rounded=0;orthogonalLoop=1;jettySize=auto;html=1;" edge="1" parent="1" source="N_ZYfz5Pbiu0XaLNVqqr-19" target="N_ZYfz5Pbiu0XaLNVqqr-22">
          <mxGeometry relative="1" as="geometry">
            <mxPoint x="390" y="270" as="targetPoint" />
          </mxGeometry>
        </mxCell>
        <mxCell id="N_ZYfz5Pbiu0XaLNVqqr-19" value="b = &quot;0&quot; + b" style="rounded=0;whiteSpace=wrap;html=1;" vertex="1" parent="1">
          <mxGeometry x="330" y="160" width="120" height="60" as="geometry" />
        </mxCell>
        <mxCell id="N_ZYfz5Pbiu0XaLNVqqr-22" value="for (int i = a.length() - 1; i &gt;= 0; i--)" style="rhombus;whiteSpace=wrap;html=1;" vertex="1" parent="1">
          <mxGeometry x="290" y="300" width="200" height="130" as="geometry" />
        </mxCell>
        <mxCell id="N_ZYfz5Pbiu0XaLNVqqr-26" style="edgeStyle=orthogonalEdgeStyle;rounded=0;orthogonalLoop=1;jettySize=auto;html=1;entryX=0.95;entryY=0.515;entryDx=0;entryDy=0;entryPerimeter=0;" edge="1" parent="1" source="N_ZYfz5Pbiu0XaLNVqqr-23" target="N_ZYfz5Pbiu0XaLNVqqr-22">
          <mxGeometry relative="1" as="geometry">
            <mxPoint x="620" y="360" as="targetPoint" />
            <Array as="points">
              <mxPoint x="621" y="530" />
              <mxPoint x="621" y="367" />
            </Array>
          </mxGeometry>
        </mxCell>
        <mxCell id="N_ZYfz5Pbiu0XaLNVqqr-27" style="edgeStyle=orthogonalEdgeStyle;rounded=0;orthogonalLoop=1;jettySize=auto;html=1;" edge="1" parent="1" source="N_ZYfz5Pbiu0XaLNVqqr-23" target="N_ZYfz5Pbiu0XaLNVqqr-28">
          <mxGeometry relative="1" as="geometry">
            <mxPoint x="390" y="660" as="targetPoint" />
          </mxGeometry>
        </mxCell>
        <mxCell id="N_ZYfz5Pbiu0XaLNVqqr-23" value="int sum = (a[i] - &#39;0&#39;) + (b[i] - &#39;0&#39;) + carry; carry = sum / 10; result = char(sum % 10 + &#39;0&#39;) + result;" style="rounded=0;whiteSpace=wrap;html=1;" vertex="1" parent="1">
          <mxGeometry x="300" y="460" width="180" height="140" as="geometry" />
        </mxCell>
        <mxCell id="N_ZYfz5Pbiu0XaLNVqqr-24" style="edgeStyle=orthogonalEdgeStyle;rounded=0;orthogonalLoop=1;jettySize=auto;html=1;entryX=0.5;entryY=0;entryDx=0;entryDy=0;" edge="1" parent="1" source="N_ZYfz5Pbiu0XaLNVqqr-22" target="N_ZYfz5Pbiu0XaLNVqqr-23">
          <mxGeometry relative="1" as="geometry">
            <Array as="points" />
          </mxGeometry>
        </mxCell>
        <mxCell id="N_ZYfz5Pbiu0XaLNVqqr-29" style="edgeStyle=orthogonalEdgeStyle;rounded=0;orthogonalLoop=1;jettySize=auto;html=1;" edge="1" parent="1" source="N_ZYfz5Pbiu0XaLNVqqr-28" target="N_ZYfz5Pbiu0XaLNVqqr-30">
          <mxGeometry relative="1" as="geometry">
            <mxPoint x="390" y="780" as="targetPoint" />
          </mxGeometry>
        </mxCell>
        <mxCell id="N_ZYfz5Pbiu0XaLNVqqr-28" value="if (carry &gt; 0)" style="rhombus;whiteSpace=wrap;html=1;" vertex="1" parent="1">
          <mxGeometry x="345" y="630" width="90" height="100" as="geometry" />
        </mxCell>
        <mxCell id="N_ZYfz5Pbiu0XaLNVqqr-31" style="edgeStyle=orthogonalEdgeStyle;rounded=0;orthogonalLoop=1;jettySize=auto;html=1;" edge="1" parent="1" source="N_ZYfz5Pbiu0XaLNVqqr-30" target="N_ZYfz5Pbiu0XaLNVqqr-32">
          <mxGeometry relative="1" as="geometry">
            <mxPoint x="390" y="880" as="targetPoint" />
          </mxGeometry>
        </mxCell>
        <mxCell id="N_ZYfz5Pbiu0XaLNVqqr-30" value="esult = char(carry + &#39;0&#39;) + result;" style="rounded=0;whiteSpace=wrap;html=1;" vertex="1" parent="1">
          <mxGeometry x="330" y="750" width="120" height="60" as="geometry" />
        </mxCell>
        <mxCell id="N_ZYfz5Pbiu0XaLNVqqr-33" style="edgeStyle=orthogonalEdgeStyle;rounded=0;orthogonalLoop=1;jettySize=auto;html=1;" edge="1" parent="1" source="N_ZYfz5Pbiu0XaLNVqqr-32" target="N_ZYfz5Pbiu0XaLNVqqr-34">
          <mxGeometry relative="1" as="geometry">
            <mxPoint x="390" y="970" as="targetPoint" />
          </mxGeometry>
        </mxCell>
        <mxCell id="N_ZYfz5Pbiu0XaLNVqqr-32" value="cout &lt;&lt; result &lt;&lt; endl;" style="rounded=0;whiteSpace=wrap;html=1;" vertex="1" parent="1">
          <mxGeometry x="330" y="850" width="120" height="60" as="geometry" />
        </mxCell>
        <mxCell id="N_ZYfz5Pbiu0XaLNVqqr-34" value="End" style="ellipse;whiteSpace=wrap;html=1;fillColor=#f8cecc;strokeColor=#b85450;" vertex="1" parent="1">
          <mxGeometry x="330" y="930" width="120" height="80" as="geometry" />
        </mxCell>
      </root>
    </mxGraphModel>
  </diagram>
</mxfile>
